# xmcd
# Track frame offsets:
# 150
# 19793
# 38975
# 51963
# 71940
#
# Disc length: 1146 seconds
# Revision: 0
# Processed by: cddbd v1.5.2PL0 Copyright (c) Steve Scherf et al.
# Submitted via: VisiTrax 2.11.2.271 - For more info visit www.synapsa.com
#
DISCID=44047805
DTITLE=Fiona O'Shea - Rose
DYEAR=2010
DGENRE=Country - Folk Rock
TTITLE0=Buried Alive
TTITLE1=Like An Echo
TTITLE2=Restless, A Little Restless
TTITLE3=Rose
TTITLE4=Still Waters
EXTD=
EXTT0=
EXTT1=
EXTT2=
EXTT3=
EXTT4=
PLAYORDER=
